<?xml version="1.0" encoding="UTF-8"?>
<!DOCTYPE svg PUBLIC "-//W3C//DTD SVG 1.1//EN" "http://www.w3.org/Graphics/SVG/1.1/DTD/svg11.dtd">
<svg xmlns="http://www.w3.org/2000/svg" version="1.1" width="512px" height="512px" style="shape-rendering:geometricPrecision; text-rendering:geometricPrecision; image-rendering:optimizeQuality; fill-rule:evenodd; clip-rule:evenodd" xmlns:xlink="http://www.w3.org/1999/xlink">
<g><path style="opacity:1" fill="#fefefe" d="M -0.5,-0.5 C 170.167,-0.5 340.833,-0.5 511.5,-0.5C 511.5,170.167 511.5,340.833 511.5,511.5C 340.833,511.5 170.167,511.5 -0.5,511.5C -0.5,340.833 -0.5,170.167 -0.5,-0.5 Z"/></g>
<g><path style="opacity:1" fill="#ec1970" d="M 415.5,110.5 C 421.094,109.743 425.261,111.743 428,116.5C 428.5,124.159 428.666,131.826 428.5,139.5C 435.841,139.334 443.174,139.5 450.5,140C 457.392,142.851 459.225,147.684 456,154.5C 454.786,156.049 453.286,157.215 451.5,158C 443.841,158.5 436.174,158.666 428.5,158.5C 428.666,166.174 428.5,173.841 428,181.5C 425.081,187.025 420.581,188.858 414.5,187C 412.622,185.457 411.122,183.624 410,181.5C 409.5,173.841 409.334,166.174 409.5,158.5C 401.826,158.666 394.159,158.5 386.5,158C 380.911,155.549 379.078,151.383 381,145.5C 381.785,143.714 382.951,142.214 384.5,141C 392.749,139.594 401.083,139.094 409.5,139.5C 409.334,131.826 409.5,124.159 410,116.5C 411.36,113.977 413.193,111.977 415.5,110.5 Z"/></g>
<g><path style="opacity:1" fill="#b966cb" d="M 183.5,140.5 C 188.833,140.5 194.167,140.5 199.5,140.5C 205.084,145.774 210.751,151.774 216.5,158.5C 210.5,158.5 204.5,158.5 198.5,158.5C 197.588,156.405 196.421,154.405 195,152.5C 190.991,148.658 187.157,144.658 183.5,140.5 Z"/></g>
<g><path style="opacity:1" fill="#ac80e2" d="M 199.5,140.5 C 207.5,140.5 215.5,140.5 223.5,140.5C 229.176,146.177 234.509,152.177 239.5,158.5C 231.833,158.5 224.167,158.5 216.5,158.5C 210.751,151.774 205.084,145.774 199.5,140.5 Z"/></g>
<g><path style="opacity:1" fill="#a194f1" d="M 223.5,140.5 C 229.833,140.5 236.167,140.5 242.5,140.5C 241.488,142.1 241.988,143.434 244,144.5C 244.333,144.167 244.667,143.833 245,143.5C 246.422,146.592 248.589,149.092 251.5,151C 251.167,151.333 250.833,151.667 250.5,152C 253.983,152.985 256.316,155.151 257.5,158.5C 251.5,158.5 245.5,158.5 239.5,158.5C 234.509,152.177 229.176,146.177 223.5,140.5 Z"/></g>
<g><path style="opacity:1" fill="#97a5fd" d="M 242.5,140.5 C 249.5,140.5 256.5,140.5 263.5,140.5C 269.111,146.447 274.778,152.447 280.5,158.5C 272.833,158.5 265.167,158.5 257.5,158.5C 256.316,155.151 253.983,152.985 250.5,152C 250.833,151.667 251.167,151.333 251.5,151C 248.589,149.092 246.422,146.592 245,143.5C 244.667,143.833 244.333,144.167 244,144.5C 241.988,143.434 241.488,142.1 242.5,140.5 Z"/></g>
<g><path style="opacity:1" fill="#8db6fe" d="M 263.5,140.5 C 270.167,140.5 276.833,140.5 283.5,140.5C 288.789,146.492 294.122,152.492 299.5,158.5C 293.167,158.5 286.833,158.5 280.5,158.5C 274.778,152.447 269.111,146.447 263.5,140.5 Z"/></g>
<g><path style="opacity:1" fill="#86c2fe" d="M 283.5,140.5 C 289.842,140.334 296.175,140.5 302.5,141C 302.167,141.333 301.833,141.667 301.5,142C 302.824,143.872 304.324,144.705 306,144.5C 307.08,146.996 308.414,149.33 310,151.5C 310.333,151.167 310.667,150.833 311,150.5C 313.285,153.432 315.785,156.098 318.5,158.5C 312.167,158.5 305.833,158.5 299.5,158.5C 294.122,152.492 288.789,146.492 283.5,140.5 Z"/></g>
<g><path style="opacity:1" fill="#97d1fd" d="M 154.5,140.5 C 221.167,139.167 287.833,139.167 354.5,140.5C 349.167,140.5 343.833,140.5 338.5,140.5C 334.167,140.5 329.833,140.5 325.5,140.5C 322.482,140.335 319.482,140.502 316.5,141C 321.479,146.311 326.813,151.311 332.5,156C 332.167,156.333 331.833,156.667 331.5,157C 332.416,157.278 333.082,157.778 333.5,158.5C 328.5,158.5 323.5,158.5 318.5,158.5C 315.785,156.098 313.285,153.432 311,150.5C 310.667,150.833 310.333,151.167 310,151.5C 308.414,149.33 307.08,146.996 306,144.5C 304.324,144.705 302.824,143.872 301.5,142C 301.833,141.667 302.167,141.333 302.5,141C 296.175,140.5 289.842,140.334 283.5,140.5C 276.833,140.5 270.167,140.5 263.5,140.5C 256.5,140.5 249.5,140.5 242.5,140.5C 236.167,140.5 229.833,140.5 223.5,140.5C 215.5,140.5 207.5,140.5 199.5,140.5C 194.167,140.5 188.833,140.5 183.5,140.5C 180.167,140.5 176.833,140.5 173.5,140.5C 167.167,140.5 160.833,140.5 154.5,140.5 Z"/></g>
<g><path style="opacity:1" fill="#79d7fe" d="M 325.5,140.5 C 330.5,146.5 335.5,152.5 340.5,158.5C 338.167,158.5 335.833,158.5 333.5,158.5C 333.082,157.778 332.416,157.278 331.5,157C 331.833,156.667 332.167,156.333 332.5,156C 326.813,151.311 321.479,146.311 316.5,141C 319.482,140.502 322.482,140.335 325.5,140.5 Z"/></g>
<g><path style="opacity:1" fill="#74e1fe" d="M 325.5,140.5 C 329.833,140.5 334.167,140.5 338.5,140.5C 343.861,146.193 349.195,151.86 354.5,157.5C 350.03,158.486 345.363,158.819 340.5,158.5C 335.5,152.5 330.5,146.5 325.5,140.5 Z"/></g>
<g><path style="opacity:1" fill="#72ecfe" d="M 338.5,140.5 C 343.833,140.5 349.167,140.5 354.5,140.5C 361.714,143.783 363.214,148.783 359,155.5C 357.89,157.037 356.39,157.703 354.5,157.5C 349.195,151.86 343.861,146.193 338.5,140.5 Z"/></g>
<g><path style="opacity:1" fill="#d53497" d="M 139.5,142.5 C 141.265,141.539 143.265,141.205 145.5,141.5C 148.649,141.211 151.649,141.711 154.5,143C 159.62,148.19 164.62,153.356 169.5,158.5C 165.167,158.5 160.833,158.5 156.5,158.5C 156.657,157.127 156.49,155.793 156,154.5C 155.667,154.833 155.333,155.167 155,155.5C 151.752,151.409 148.252,147.409 144.5,143.5C 142.955,142.548 141.288,142.215 139.5,142.5 Z"/></g>
<g><path style="opacity:1" fill="#de2889" d="M 139.5,142.5 C 141.288,142.215 142.955,142.548 144.5,143.5C 148.252,147.409 151.752,151.409 155,155.5C 155.333,155.167 155.667,154.833 156,154.5C 156.49,155.793 156.657,157.127 156.5,158.5C 153.482,158.704 150.482,159.037 147.5,159.5C 143.726,156.062 140.726,152.062 138.5,147.5C 136.447,146.473 134.447,145.473 132.5,144.5C 134.515,143.076 136.848,142.41 139.5,142.5 Z"/></g>
<g><path style="opacity:1" fill="#e5217d" d="M 132.5,144.5 C 134.447,145.473 136.447,146.473 138.5,147.5C 140.726,152.062 143.726,156.062 147.5,159.5C 143.856,160.223 140.189,161.223 136.5,162.5C 136.586,161.504 136.252,160.671 135.5,160C 136.167,159.333 136.833,158.667 137.5,158C 133.447,155.613 130.447,152.28 128.5,148C 127.207,147.51 125.873,147.343 124.5,147.5C 126.792,145.733 129.458,144.733 132.5,144.5 Z"/></g>
<g><path style="opacity:1" fill="#c158bd" d="M 173.5,140.5 C 176.833,140.5 180.167,140.5 183.5,140.5C 187.157,144.658 190.991,148.658 195,152.5C 196.421,154.405 197.588,156.405 198.5,158.5C 195.5,158.5 192.5,158.5 189.5,158.5C 184.116,152.455 178.782,146.455 173.5,140.5 Z"/></g>
<g><path style="opacity:1" fill="#ca48ac" d="M 145.5,141.5 C 148.287,140.523 151.287,140.19 154.5,140.5C 160.833,140.5 167.167,140.5 173.5,140.5C 178.782,146.455 184.116,152.455 189.5,158.5C 182.833,158.5 176.167,158.5 169.5,158.5C 164.62,153.356 159.62,148.19 154.5,143C 151.649,141.711 148.649,141.211 145.5,141.5 Z"/></g>
<g><path style="opacity:1" fill="#ec146f" d="M 124.5,147.5 C 125.873,147.343 127.207,147.51 128.5,148C 130.447,152.28 133.447,155.613 137.5,158C 136.833,158.667 136.167,159.333 135.5,160C 136.252,160.671 136.586,161.504 136.5,162.5C 117.789,168.385 106.622,181.052 103,200.5C 101.375,235.133 101.041,269.8 102,304.5C 103.857,330.011 117.023,346.178 141.5,353C 151.397,354.942 161.397,355.942 171.5,356C 172,356.5 172.5,357 173,357.5C 173.333,369.167 173.667,380.833 174,392.5C 192.4,379.919 210.9,367.586 229.5,355.5C 262.167,355.5 294.833,355.5 327.5,355.5C 333.064,361.077 338.397,367.077 343.5,373.5C 307.165,373.333 270.832,373.5 234.5,374C 213.833,388.333 193.167,402.667 172.5,417C 165.179,421.203 159.346,419.703 155,412.5C 154.5,399.504 154.333,386.504 154.5,373.5C 116.365,371.858 92.8646,352.525 84,315.5C 82.8994,295.357 82.3994,275.191 82.5,255C 82.373,236.131 82.873,217.298 84,198.5C 88.4791,174.149 101.979,157.149 124.5,147.5 Z"/></g>
<g><path style="opacity:1" fill="#6fecfe" d="M 427.5,213.5 C 427.666,220.508 427.5,227.508 427,234.5C 421.273,229.109 415.939,223.442 411,217.5C 410.506,215.866 410.34,214.199 410.5,212.5C 414.189,206.193 419.189,205.026 425.5,209C 426.582,210.33 427.249,211.83 427.5,213.5 Z"/></g>
<g><path style="opacity:1" fill="#ec106e" d="M 207.5,213.5 C 213.167,213.5 218.833,213.5 224.5,213.5C 224.334,223.172 224.5,232.839 225,242.5C 234.182,234.993 244.349,233.493 255.5,238C 262.227,241.065 266.394,246.231 268,253.5C 268.5,267.829 268.667,282.163 268.5,296.5C 262.833,296.5 257.167,296.5 251.5,296.5C 251.667,284.495 251.5,272.495 251,260.5C 247.043,250.512 240.209,248.012 230.5,253C 228.622,254.543 227.122,256.376 226,258.5C 224.58,271.106 224.08,283.772 224.5,296.5C 218.833,296.5 213.167,296.5 207.5,296.5C 207.5,268.833 207.5,241.167 207.5,213.5 Z"/></g>
<g><path style="opacity:1" fill="#ec176f" d="M 158.5,217.5 C 171.242,215.896 183.242,218.063 194.5,224C 197.311,225.644 199.644,227.81 201.5,230.5C 198.167,234.5 194.5,238.167 190.5,241.5C 176.676,229.222 163.176,229.555 150,242.5C 143.043,255.712 144.876,267.545 155.5,278C 168.309,285.128 179.976,283.628 190.5,273.5C 195.091,276.899 198.591,280.899 201,285.5C 186.743,297.77 170.576,300.937 152.5,295C 133.182,285.537 125.016,270.037 128,248.5C 132.34,232.327 142.507,221.994 158.5,217.5 Z"/></g>
<g><path style="opacity:1" fill="#ec1b70" d="M 366.5,237.5 C 370.97,238.486 375.637,238.819 380.5,238.5C 380.5,242.5 380.5,246.5 380.5,250.5C 375.637,250.181 370.97,250.514 366.5,251.5C 366.334,260.839 366.5,270.173 367,279.5C 368.259,282.217 370.426,283.55 373.5,283.5C 375.95,283.239 378.283,282.572 380.5,281.5C 382.555,285.328 384.221,289.328 385.5,293.5C 378.969,297.132 371.969,298.299 364.5,297C 355.558,295.058 350.392,289.558 349,280.5C 348.5,261.503 348.333,242.503 348.5,223.5C 354.5,223.5 360.5,223.5 366.5,223.5C 366.5,228.167 366.5,232.833 366.5,237.5 Z"/></g>
<g><path style="opacity:1" fill="#7bdcfe" d="M 410.5,212.5 C 410.34,214.199 410.506,215.866 411,217.5C 415.939,223.442 421.273,229.109 427,234.5C 427.5,227.508 427.666,220.508 427.5,213.5C 428.497,230.325 428.83,247.325 428.5,264.5C 427.566,261.344 426.899,258.011 426.5,254.5C 425.448,254.649 424.448,254.483 423.5,254C 422.272,251.86 420.605,250.193 418.5,249C 418.833,248.667 419.167,248.333 419.5,248C 415.259,245.587 411.925,242.421 409.5,238.5C 409.174,229.651 409.507,220.984 410.5,212.5 Z"/></g>
<g><path style="opacity:1" fill="#ec156f" d="M 297.5,235.5 C 306.785,234.194 314.952,236.527 322,242.5C 322.495,240.527 322.662,238.527 322.5,236.5C 328.167,236.5 333.833,236.5 339.5,236.5C 339.5,256.5 339.5,276.5 339.5,296.5C 333.833,296.5 328.167,296.5 322.5,296.5C 322.662,294.473 322.495,292.473 322,290.5C 313.642,297.556 304.142,299.39 293.5,296C 280.361,290.403 274.028,280.403 274.5,266C 274.808,250.195 282.474,240.028 297.5,235.5 Z"/></g>
<g><path style="opacity:1" fill="#f262a1" d="M 366.5,237.5 C 371.5,237.5 376.5,237.5 381.5,237.5C 381.5,242.167 381.5,246.833 381.5,251.5C 376.5,251.5 371.5,251.5 366.5,251.5C 370.97,250.514 375.637,250.181 380.5,250.5C 380.5,246.5 380.5,242.5 380.5,238.5C 375.637,238.819 370.97,238.486 366.5,237.5 Z"/></g>
<g><path style="opacity:1" fill="#88cefe" d="M 409.5,238.5 C 411.925,242.421 415.259,245.587 419.5,248C 419.167,248.333 418.833,248.667 418.5,249C 420.605,250.193 422.272,251.86 423.5,254C 424.448,254.483 425.448,254.649 426.5,254.5C 426.899,258.011 427.566,261.344 428.5,264.5C 428.829,278.677 428.496,292.677 427.5,306.5C 427.5,302.167 427.5,297.833 427.5,293.5C 427.83,287.132 427.496,280.798 426.5,274.5C 421.493,269.136 416.493,263.802 411.5,258.5C 410.832,261.306 410.166,263.972 409.5,266.5C 409.5,257.167 409.5,247.833 409.5,238.5 Z"/></g>
<g><path style="opacity:1" fill="#fefbfd" d="M 300.5,250.5 C 318.231,249.069 325.064,257.069 321,274.5C 316.464,281.844 309.964,284.344 301.5,282C 290.971,275.367 288.805,266.534 295,255.5C 296.812,253.7 298.645,252.033 300.5,250.5 Z"/></g>
<g><path style="opacity:1" fill="#88c0fe" d="M 427.5,293.5 C 422.67,288.181 418.003,283.348 413.5,279C 413.833,278.667 414.167,278.333 414.5,278C 413.069,277.535 411.903,276.701 411,275.5C 410.79,277.058 410.29,278.391 409.5,279.5C 409.5,275.167 409.5,270.833 409.5,266.5C 410.166,263.972 410.832,261.306 411.5,258.5C 416.493,263.802 421.493,269.136 426.5,274.5C 427.496,280.798 427.83,287.132 427.5,293.5 Z"/></g>
<g><path style="opacity:1" fill="#8fb3fe" d="M 427.5,293.5 C 427.5,297.833 427.5,302.167 427.5,306.5C 427.675,308.621 427.341,310.621 426.5,312.5C 425.603,311.402 424.77,311.402 424,312.5C 420.322,308.321 416.822,303.988 413.5,299.5C 412.378,298.37 411.044,297.703 409.5,297.5C 409.5,291.5 409.5,285.5 409.5,279.5C 410.29,278.391 410.79,277.058 411,275.5C 411.903,276.701 413.069,277.535 414.5,278C 414.167,278.333 413.833,278.667 413.5,279C 418.003,283.348 422.67,288.181 427.5,293.5 Z"/></g>
<g><path style="opacity:1" fill="#99a5fc" d="M 409.5,297.5 C 411.044,297.703 412.378,298.37 413.5,299.5C 416.822,303.988 420.322,308.321 424,312.5C 424.77,311.402 425.603,311.402 426.5,312.5C 426.181,318.432 424.848,324.098 422.5,329.5C 419.389,326.772 416.389,323.939 413.5,321C 411.754,320.529 410.087,319.862 408.5,319C 408.833,318.667 409.167,318.333 409.5,318C 408.423,317.53 407.423,317.697 406.5,318.5C 408.235,311.623 409.235,304.623 409.5,297.5 Z"/></g>
<g><path style="opacity:1" fill="#b07bde" d="M 399.5,334.5 C 401.044,334.703 402.378,335.37 403.5,336.5C 406.516,340.512 409.516,344.512 412.5,348.5C 410.212,352.456 407.212,355.789 403.5,358.5C 403.082,357.778 402.416,357.278 401.5,357C 402.451,356.282 402.617,355.449 402,354.5C 399.632,352.301 397.466,349.968 395.5,347.5C 394.049,345.441 392.049,344.441 389.5,344.5C 393.167,341.5 396.5,338.167 399.5,334.5 Z"/></g>
<g><path style="opacity:1" fill="#a58dec" d="M 422.5,329.5 C 420.452,336.6 417.118,342.933 412.5,348.5C 409.516,344.512 406.516,340.512 403.5,336.5C 402.378,335.37 401.044,334.703 399.5,334.5C 402.381,329.405 404.714,324.072 406.5,318.5C 407.423,317.697 408.423,317.53 409.5,318C 409.167,318.333 408.833,318.667 408.5,319C 410.087,319.862 411.754,320.529 413.5,321C 416.389,323.939 419.389,326.772 422.5,329.5 Z"/></g>
<g><path style="opacity:1" fill="#c457ba" d="M 382.5,348.5 C 383.552,348.351 384.552,348.517 385.5,349C 390.355,353.049 394.021,357.882 396.5,363.5C 392.407,365.754 388.073,367.421 383.5,368.5C 379.364,363.288 375.364,358.621 371.5,354.5C 370.264,353.754 368.93,353.421 367.5,353.5C 372.473,352.065 377.473,350.398 382.5,348.5 Z"/></g>
<g><path style="opacity:1" fill="#b86bd0" d="M 389.5,344.5 C 392.049,344.441 394.049,345.441 395.5,347.5C 397.466,349.968 399.632,352.301 402,354.5C 402.617,355.449 402.451,356.282 401.5,357C 402.416,357.278 403.082,357.778 403.5,358.5C 401.343,360.412 399.009,362.079 396.5,363.5C 394.021,357.882 390.355,353.049 385.5,349C 384.552,348.517 383.552,348.351 382.5,348.5C 384.635,346.929 386.968,345.596 389.5,344.5 Z"/></g>
<g><path style="opacity:1" fill="#e02083" d="M 327.5,355.5 C 331.5,355.5 335.5,355.5 339.5,355.5C 340.567,358.568 342.567,360.568 345.5,361.5C 345.281,362.675 345.614,363.675 346.5,364.5C 349.743,367.382 352.743,370.382 355.5,373.5C 351.5,373.5 347.5,373.5 343.5,373.5C 338.397,367.077 333.064,361.077 327.5,355.5 Z"/></g>
<g><path style="opacity:1" fill="#d92f91" d="M 339.5,355.5 C 343.869,354.923 347.869,355.757 351.5,358C 355.699,363.028 360.032,367.861 364.5,372.5C 361.57,373.299 358.57,373.632 355.5,373.5C 352.743,370.382 349.743,367.382 346.5,364.5C 345.614,363.675 345.281,362.675 345.5,361.5C 342.567,360.568 340.567,358.568 339.5,355.5 Z"/></g>
<g><path style="opacity:1" fill="#d75aad" d="M 367.5,353.5 C 368.93,353.421 370.264,353.754 371.5,354.5C 375.364,358.621 379.364,363.288 383.5,368.5C 377.602,371.347 371.269,372.681 364.5,372.5C 360.032,367.861 355.699,363.028 351.5,358C 347.869,355.757 343.869,354.923 339.5,355.5C 335.5,355.5 331.5,355.5 327.5,355.5C 294.833,355.5 262.167,355.5 229.5,355.5C 275.35,354.808 321.35,354.142 367.5,353.5 Z"/></g>
</svg>
